<?xml version="1.0" encoding="UTF-8" standalone="no"?>
<!DOCTYPE svg PUBLIC "-//W3C//DTD SVG 1.1//EN" "http://www.w3.org/Graphics/SVG/1.1/DTD/svg11.dtd">
<svg version="1.1" xmlns="http://www.w3.org/2000/svg" xmlns:xlink="http://www.w3.org/1999/xlink" preserveAspectRatio="xMidYMid meet" viewBox="0 0 1900 1000" width="1900" height="1000"><defs><path d="M1304.41 667.36L1362.99 18L1418.22 667.36L1362.99 982L1304.41 667.36Z" id="g4HpsmtC4d"></path><path d="M-422 766.14L-422 766.14L-422 768.14L-422 768.14L-422 766.14Z" id="ae6JoOqza"></path><path d="M1243.33 241.53L1189.44 312.89L1281.13 148.2L1213.2 558.46L1320.31 506.58L1305.25 665.69L1197.61 695.39L1140.4 666.94L1243.33 241.53Z" id="aClLogeFe"></path><path d="M1363.83 26.37L1420.73 667.36L1362.57 982L1363.83 963.59L1363.83 26.37Z" id="bfSp2HIXv"></path><path d="M1311.95 584.94L1304.41 668.2L1197.17 695.39L1198.56 695.39L1140.4 667.36L1311.95 584.94Z" id="c18cETNMAd"></path><path d="M1281.4 148.2L1217.39 556.9L1188.52 569.87L1275.13 159.42L1281.4 148.2Z" id="aR1SabOGf"></path><path d="M1250.02 216.32L1242.91 243.94L1196.89 303.35L1230.36 253.14L1250.02 216.32Z" id="buXCPPZRF"></path><path d="M1480.32 241.53L1534.2 312.89L1442.51 148.2L1510.44 558.46L1420.73 516.01L1439.95 666.94L1526.03 695.39L1583.24 666.94L1480.32 241.53Z" id="a3dyl1e3Eq"></path><path d="M1432.38 601.39L1439.07 667.36L1526.48 695.39L1525.08 695.39L1583.24 667.36L1432.38 601.39Z" id="g4xd5ZcyLb"></path><path d="M1441.82 148.2L1505.84 556.07L1534.71 574.48L1448.1 159L1441.82 148.2Z" id="j2J4TtxPKN"></path><path d="M1473.62 215.49L1480.73 243.1L1526.76 302.51L1493.29 252.31L1473.62 215.49Z" id="a27tqLweFC"></path></defs><g><g><g><use xlink:href="#g4HpsmtC4d" opacity="1" fill="#b60c01" fill-opacity="1"></use></g><g><use xlink:href="#ae6JoOqza" opacity="1" fill="#1787af" fill-opacity="1"></use></g><g><use xlink:href="#aClLogeFe" opacity="1" fill="#b60c01" fill-opacity="1"></use></g><g><use xlink:href="#bfSp2HIXv" opacity="1" fill="#780000" fill-opacity="1"></use></g><g><use xlink:href="#c18cETNMAd" opacity="1" fill="#780000" fill-opacity="1"></use></g><g><use xlink:href="#aR1SabOGf" opacity="1" fill="#780000" fill-opacity="1"></use></g><g><use xlink:href="#buXCPPZRF" opacity="1" fill="#780000" fill-opacity="1"></use></g><g><use xlink:href="#a3dyl1e3Eq" opacity="1" fill="#d4d4d4" fill-opacity="1"></use></g><g><use xlink:href="#g4xd5ZcyLb" opacity="1" fill="#adadad" fill-opacity="1"></use></g><g><use xlink:href="#j2J4TtxPKN" opacity="1" fill="#b4b4b4" fill-opacity="1"></use></g><g><use xlink:href="#a27tqLweFC" opacity="1" fill="#ababab" fill-opacity="1"></use></g></g></g></svg>